<svg xmlns="http://www.w3.org/2000/svg">
<symbol id="logo" >
<path d="M22.1769 21.9772H9.824L20.4122 24.4886L31.0005 26.9999L22.1769 21.9772Z"/>
<path fill-rule="evenodd" clip-rule="evenodd" d="M31.0005 26.9999L22.1769 21.9772L19.0887 11.4886L16.0005 0.999945L16.0005 11.3409L8.50047 19.1704L1.00047 26.9999L9.824 21.9772L20.4122 24.4886L31.0005 26.9999ZM9.824 21.9772L16.0005 11.3409L22.1769 21.9772H9.824Z"/>
<path fill-rule="evenodd" clip-rule="evenodd" d="M16.0005 -0.000610352L31.8662 27.4999H0.134766L16.0005 -0.000610352ZM12.6482 7.81115L3.5003 23.6675L8.07424 18.8926L12.6482 7.81115ZM9.97518 16.9081L15.5005 11.14L15.5005 3.5218L9.97518 16.9081ZM16.5005 4.46834L20.5249 18.1366L16.5005 11.2062V4.46834ZM13.4663 14.7091L3.73515 24.8679L9.45938 21.6094L13.4663 14.7091ZM9.90022 22.5092L3.45461 26.1783L17.6349 24.3437L9.90022 22.5092ZM20.3858 24.9962L8.76226 26.4999H26.7259L20.3858 24.9962ZM26.7757 20.6776L17.6666 4.8885L19.542 11.258L26.7757 20.6776ZM29.0955 25.3402L20.3261 13.9208L22.5996 21.6425L29.0955 25.3402ZM21.3084 21.4772H10.6925L16.0005 12.3365L21.3084 21.4772ZM14.0986 22.4772L27.7203 25.7081L22.0446 22.4772H14.0986Z"/>
</symbol>
<symbol id="hamburger">
<path d="M2 4H38C38.5304 4 39.0391 3.78929 39.4142 3.41421C39.7893 3.03914 40 2.53043 40 2C40 1.46957 39.7893 0.96086 39.4142 0.585787C39.0391 0.210714 38.5304 0 38 0H2C1.46957 0 0.960859 0.210714 0.585786 0.585787C0.210714 0.96086 0 1.46957 0 2C0 2.53043 0.210714 3.03914 0.585786 3.41421C0.960859 3.78929 1.46957 4 2 4ZM38 20H10C9.46957 20 8.96086 20.2107 8.58579 20.5858C8.21071 20.9609 8 21.4696 8 22C8 22.5304 8.21071 23.0391 8.58579 23.4142C8.96086 23.7893 9.46957 24 10 24H38C38.5304 24 39.0391 23.7893 39.4142 23.4142C39.7893 23.0391 40 22.5304 40 22C40 21.4696 39.7893 20.9609 39.4142 20.5858C39.0391 20.2107 38.5304 20 38 20ZM38 10H18C17.4696 10 16.9609 10.2107 16.5858 10.5858C16.2107 10.9609 16 11.4696 16 12C16 12.5304 16.2107 13.0391 16.5858 13.4142C16.9609 13.7893 17.4696 14 18 14H38C38.5304 14 39.0391 13.7893 39.4142 13.4142C39.7893 13.0391 40 12.5304 40 12C40 11.4696 39.7893 10.9609 39.4142 10.5858C39.0391 10.2107 38.5304 10 38 10Z"/>
</symbol>
<symbol id="close">
<path d="M19.8199 16.9999L32.4199 4.41988C32.7965 4.04328 33.0081 3.53249 33.0081 2.99988C33.0081 2.46728 32.7965 1.95649 32.4199 1.57988C32.0433 1.20328 31.5325 0.991699 30.9999 0.991699C30.4673 0.991699 29.9565 1.20328 29.5799 1.57988L16.9999 14.1799L4.41988 1.57988C4.04327 1.20328 3.53248 0.9917 2.99988 0.9917C2.46727 0.9917 1.95649 1.20328 1.57988 1.57988C1.20327 1.95649 0.991695 2.46728 0.991695 2.99988C0.991695 3.53249 1.20327 4.04328 1.57988 4.41988L14.1799 16.9999L1.57988 29.5799C1.39242 29.7658 1.24363 29.987 1.1421 30.2307C1.04056 30.4744 0.988281 30.7359 0.988281 30.9999C0.988281 31.2639 1.04056 31.5253 1.1421 31.769C1.24363 32.0128 1.39242 32.234 1.57988 32.4199C1.7658 32.6073 1.98701 32.7561 2.23072 32.8577C2.47444 32.9592 2.73585 33.0115 2.99988 33.0115C3.2639 33.0115 3.52531 32.9592 3.76903 32.8577C4.01275 32.7561 4.23395 32.6073 4.41988 32.4199L16.9999 19.8199L29.5799 32.4199C29.7658 32.6073 29.987 32.7561 30.2307 32.8577C30.4744 32.9592 30.7359 33.0115 30.9999 33.0115C31.2639 33.0115 31.5253 32.9592 31.769 32.8577C32.0128 32.7561 32.2339 32.6073 32.4199 32.4199C32.6073 32.234 32.7561 32.0128 32.8577 31.769C32.9592 31.5253 33.0115 31.2639 33.0115 30.9999C33.0115 30.7359 32.9592 30.4744 32.8577 30.2307C32.7561 29.987 32.6073 29.7658 32.4199 29.5799L19.8199 16.9999Z"/>
</symbol>
<symbol id="arrow-right">
<path d="M1.11167 5.41664H28.8113L25.2393 1.8554C25.0355 1.65158 24.921 1.37513 24.921 1.08687C24.921 0.798614 25.0355 0.522165 25.2393 0.318337C25.4431 0.114509 25.7196 0 26.0078 0C26.2961 0 26.5725 0.114509 26.7764 0.318337L32.1886 5.73054C32.2871 5.83349 32.3644 5.95488 32.4159 6.08775C32.5241 6.35128 32.5241 6.64687 32.4159 6.9104C32.3644 7.04328 32.2871 7.16467 32.1886 7.26761L26.7764 12.6798C26.6757 12.7813 26.556 12.8618 26.4241 12.9168C26.2922 12.9717 26.1507 13 26.0078 13C25.8649 13 25.7234 12.9717 25.5915 12.9168C25.4596 12.8618 25.3399 12.7813 25.2393 12.6798C25.1378 12.5792 25.0573 12.4595 25.0024 12.3276C24.9474 12.1957 24.9191 12.0542 24.9191 11.9113C24.9191 11.7684 24.9474 11.6269 25.0024 11.495C25.0573 11.3631 25.1378 11.2434 25.2393 11.1428L28.8113 7.58152H1.11167C0.824593 7.58152 0.549269 7.46747 0.346272 7.26448C0.143272 7.06148 0.029232 6.78616 0.029232 6.49908C0.029232 6.212 0.143272 5.93667 0.346272 5.73368C0.549269 5.53068 0.824593 5.41664 1.11167 5.41664Z"/>
</symbol>
</svg>
