<svg xmlns="http://www.w3.org/2000/svg">
<symbol id="logo" >
<path d="M22.1769 21.9772H9.824L20.4122 24.4886L31.0005 26.9999L22.1769 21.9772Z"/>
<path fill-rule="evenodd" clip-rule="evenodd" d="M31.0005 26.9999L22.1769 21.9772L19.0887 11.4886L16.0005 0.999945L16.0005 11.3409L8.50047 19.1704L1.00047 26.9999L9.824 21.9772L20.4122 24.4886L31.0005 26.9999ZM9.824 21.9772L16.0005 11.3409L22.1769 21.9772H9.824Z"/>
<path fill-rule="evenodd" clip-rule="evenodd" d="M16.0005 -0.000610352L31.8662 27.4999H0.134766L16.0005 -0.000610352ZM12.6482 7.81115L3.5003 23.6675L8.07424 18.8926L12.6482 7.81115ZM9.97518 16.9081L15.5005 11.14L15.5005 3.5218L9.97518 16.9081ZM16.5005 4.46834L20.5249 18.1366L16.5005 11.2062V4.46834ZM13.4663 14.7091L3.73515 24.8679L9.45938 21.6094L13.4663 14.7091ZM9.90022 22.5092L3.45461 26.1783L17.6349 24.3437L9.90022 22.5092ZM20.3858 24.9962L8.76226 26.4999H26.7259L20.3858 24.9962ZM26.7757 20.6776L17.6666 4.8885L19.542 11.258L26.7757 20.6776ZM29.0955 25.3402L20.3261 13.9208L22.5996 21.6425L29.0955 25.3402ZM21.3084 21.4772H10.6925L16.0005 12.3365L21.3084 21.4772ZM14.0986 22.4772L27.7203 25.7081L22.0446 22.4772H14.0986Z"/>
</symbol>
<symbol id="hamburger">
<path d="M2 4H38C38.5304 4 39.0391 3.78929 39.4142 3.41421C39.7893 3.03914 40 2.53043 40 2C40 1.46957 39.7893 0.96086 39.4142 0.585787C39.0391 0.210714 38.5304 0 38 0H2C1.46957 0 0.960859 0.210714 0.585786 0.585787C0.210714 0.96086 0 1.46957 0 2C0 2.53043 0.210714 3.03914 0.585786 3.41421C0.960859 3.78929 1.46957 4 2 4ZM38 20H10C9.46957 20 8.96086 20.2107 8.58579 20.5858C8.21071 20.9609 8 21.4696 8 22C8 22.5304 8.21071 23.0391 8.58579 23.4142C8.96086 23.7893 9.46957 24 10 24H38C38.5304 24 39.0391 23.7893 39.4142 23.4142C39.7893 23.0391 40 22.5304 40 22C40 21.4696 39.7893 20.9609 39.4142 20.5858C39.0391 20.2107 38.5304 20 38 20ZM38 10H18C17.4696 10 16.9609 10.2107 16.5858 10.5858C16.2107 10.9609 16 11.4696 16 12C16 12.5304 16.2107 13.0391 16.5858 13.4142C16.9609 13.7893 17.4696 14 18 14H38C38.5304 14 39.0391 13.7893 39.4142 13.4142C39.7893 13.0391 40 12.5304 40 12C40 11.4696 39.7893 10.9609 39.4142 10.5858C39.0391 10.2107 38.5304 10 38 10Z"/>
</symbol>
<symbol id="close">
<path d="M19.8199 16.9999L32.4199 4.41988C32.7965 4.04328 33.0081 3.53249 33.0081 2.99988C33.0081 2.46728 32.7965 1.95649 32.4199 1.57988C32.0433 1.20328 31.5325 0.991699 30.9999 0.991699C30.4673 0.991699 29.9565 1.20328 29.5799 1.57988L16.9999 14.1799L4.41988 1.57988C4.04327 1.20328 3.53248 0.9917 2.99988 0.9917C2.46727 0.9917 1.95649 1.20328 1.57988 1.57988C1.20327 1.95649 0.991695 2.46728 0.991695 2.99988C0.991695 3.53249 1.20327 4.04328 1.57988 4.41988L14.1799 16.9999L1.57988 29.5799C1.39242 29.7658 1.24363 29.987 1.1421 30.2307C1.04056 30.4744 0.988281 30.7359 0.988281 30.9999C0.988281 31.2639 1.04056 31.5253 1.1421 31.769C1.24363 32.0128 1.39242 32.234 1.57988 32.4199C1.7658 32.6073 1.98701 32.7561 2.23072 32.8577C2.47444 32.9592 2.73585 33.0115 2.99988 33.0115C3.2639 33.0115 3.52531 32.9592 3.76903 32.8577C4.01275 32.7561 4.23395 32.6073 4.41988 32.4199L16.9999 19.8199L29.5799 32.4199C29.7658 32.6073 29.987 32.7561 30.2307 32.8577C30.4744 32.9592 30.7359 33.0115 30.9999 33.0115C31.2639 33.0115 31.5253 32.9592 31.769 32.8577C32.0128 32.7561 32.2339 32.6073 32.4199 32.4199C32.6073 32.234 32.7561 32.0128 32.8577 31.769C32.9592 31.5253 33.0115 31.2639 33.0115 30.9999C33.0115 30.7359 32.9592 30.4744 32.8577 30.2307C32.7561 29.987 32.6073 29.7658 32.4199 29.5799L19.8199 16.9999Z"/>
</symbol>
<symbol id="arrow-right">
<path d="M1.11167 5.41664H28.8113L25.2393 1.8554C25.0355 1.65158 24.921 1.37513 24.921 1.08687C24.921 0.798614 25.0355 0.522165 25.2393 0.318337C25.4431 0.114509 25.7196 0 26.0078 0C26.2961 0 26.5725 0.114509 26.7764 0.318337L32.1886 5.73054C32.2871 5.83349 32.3644 5.95488 32.4159 6.08775C32.5241 6.35128 32.5241 6.64687 32.4159 6.9104C32.3644 7.04328 32.2871 7.16467 32.1886 7.26761L26.7764 12.6798C26.6757 12.7813 26.556 12.8618 26.4241 12.9168C26.2922 12.9717 26.1507 13 26.0078 13C25.8649 13 25.7234 12.9717 25.5915 12.9168C25.4596 12.8618 25.3399 12.7813 25.2393 12.6798C25.1378 12.5792 25.0573 12.4595 25.0024 12.3276C24.9474 12.1957 24.9191 12.0542 24.9191 11.9113C24.9191 11.7684 24.9474 11.6269 25.0024 11.495C25.0573 11.3631 25.1378 11.2434 25.2393 11.1428L28.8113 7.58152H1.11167C0.824593 7.58152 0.549269 7.46747 0.346272 7.26448C0.143272 7.06148 0.029232 6.78616 0.029232 6.49908C0.029232 6.212 0.143272 5.93667 0.346272 5.73368C0.549269 5.53068 0.824593 5.41664 1.11167 5.41664Z"/>
</symbol>
<symbol id="arrow-left">
<path d="M31.8879 5.41664H4.1882L7.76026 1.8554C7.96408 1.65158 8.07859 1.37513 8.07859 1.08687C8.07859 0.798614 7.96408 0.522165 7.76026 0.318337C7.55643 0.114509 7.27998 0 6.99172 0C6.70347 0 6.42702 0.114509 6.22319 0.318337L0.810982 5.73054C0.712436 5.83349 0.635188 5.95488 0.58367 6.08775C0.475406 6.35128 0.475406 6.64687 0.58367 6.9104C0.635188 7.04328 0.712436 7.16467 0.810982 7.26761L6.22319 12.6798C6.32382 12.7813 6.44353 12.8618 6.57544 12.9168C6.70735 12.9717 6.84883 13 6.99172 13C7.13462 13 7.2761 12.9717 7.408 12.9168C7.53991 12.8618 7.65963 12.7813 7.76026 12.6798C7.86171 12.5792 7.94224 12.4595 7.99719 12.3276C8.05215 12.1957 8.08044 12.0542 8.08044 11.9113C8.08044 11.7684 8.05215 11.6269 7.99719 11.495C7.94224 11.3631 7.86171 11.2434 7.76026 11.1428L4.1882 7.58152H31.8879C32.1749 7.58152 32.4503 7.46747 32.6533 7.26448C32.8563 7.06148 32.9703 6.78616 32.9703 6.49908C32.9703 6.212 32.8563 5.93667 32.6533 5.73368C32.4503 5.53068 32.1749 5.41664 31.8879 5.41664Z"/>
</symbol>
<symbol id="appstore" >
<path d="M21.3598 17.421C21.3747 16.2525 21.6823 15.1067 22.2538 14.0904C22.8254 13.0741 23.6424 12.2202 24.6289 11.6081C24.0022 10.7049 23.1755 9.96157 22.2144 9.4372C21.2533 8.91283 20.1843 8.62184 19.0923 8.58736C16.7628 8.3406 14.5045 9.99413 13.3174 9.99413C12.1074 9.99413 10.2797 8.61186 8.31165 8.65273C7.03864 8.69424 5.79799 9.06783 4.71058 9.73711C3.62317 10.4064 2.72609 11.3485 2.10674 12.4717C-0.576134 17.1595 1.42505 24.049 3.99502 27.8383C5.28083 29.6937 6.78358 31.7664 8.74989 31.6929C10.674 31.6123 11.3927 30.4546 13.7153 30.4546C16.0163 30.4546 16.6906 31.6929 18.6968 31.6461C20.7615 31.6123 22.0624 29.7824 23.3031 27.9093C24.2269 26.5872 24.9378 25.126 25.4094 23.5798C24.2099 23.0678 23.1862 22.2108 22.4661 21.1156C21.746 20.0203 21.3612 18.7354 21.3598 17.421Z"/>
<path d="M17.5705 6.09536C18.6962 4.73147 19.2508 2.97842 19.1165 1.2085C17.3966 1.3908 15.8079 2.22039 14.6669 3.53195C14.1091 4.17268 13.6818 4.91809 13.4096 5.72557C13.1373 6.53305 13.0255 7.38676 13.0803 8.2379C13.9406 8.24683 14.7917 8.05866 15.5694 7.68753C16.3472 7.31641 17.0314 6.77202 17.5705 6.09536Z"/>
<path d="M45.6824 26.9955H39.1162L37.5393 31.6945H34.7581L40.9775 14.3093H43.8671L50.0866 31.6945H47.2579L45.6824 26.9955ZM39.7962 24.8271H45.0011L42.4353 17.201H42.3634L39.7962 24.8271Z"/>
<path d="M63.5184 25.3578C63.5184 29.2966 61.4295 31.8273 58.2771 31.8273C57.4785 31.8695 56.6844 31.6838 55.9855 31.2916C55.2866 30.8994 54.7113 30.3165 54.3254 29.6097H54.2658V35.8878H51.6878V19.0195H54.1832V21.1277H54.2306C54.6342 20.4242 55.2192 19.8444 55.9234 19.4498C56.6276 19.0552 57.4246 18.8607 58.2297 18.8869C61.4172 18.8869 63.5184 21.4298 63.5184 25.3578ZM60.8686 25.3578C60.8686 22.7916 59.5546 21.1044 57.5496 21.1044C55.5799 21.1044 54.255 22.8271 54.255 25.3578C54.255 27.9117 55.5799 29.622 57.5496 29.622C59.5546 29.622 60.8686 27.9472 60.8686 25.3578Z" />
<path d="M77.3418 25.3578C77.3418 29.2966 75.2529 31.8273 72.1005 31.8273C71.3019 31.8694 70.5078 31.6838 69.8089 31.2916C69.11 30.8994 68.5347 30.3165 68.1488 29.6097H68.0892V35.8878H65.5112V19.0195H68.0065V21.1277H68.0539C68.4576 20.4242 69.0426 19.8444 69.7468 19.4498C70.451 19.0552 71.248 18.8607 72.053 18.8869C75.2407 18.8869 77.3418 21.4298 77.3418 25.3578ZM74.692 25.3578C74.692 22.7916 73.378 21.1044 71.373 21.1044C69.4033 21.1044 68.0784 22.8271 68.0784 25.3578C68.0784 27.9117 69.4033 29.622 71.373 29.622C73.378 29.622 74.692 27.9472 74.692 25.3578H74.692Z" />
<path d="M86.478 26.8507C86.669 28.5747 88.3285 29.7067 90.5963 29.7067C92.7692 29.7067 94.3325 28.5746 94.3325 27.0201C94.3325 25.6707 93.3897 24.8627 91.1571 24.309L88.9246 23.7662C85.7613 22.9951 84.2928 21.5022 84.2928 19.0795C84.2928 16.0799 86.883 14.0195 90.561 14.0195C94.2011 14.0195 96.6965 16.0799 96.7805 19.0795H94.1781C94.0223 17.3445 92.6012 16.2973 90.5244 16.2973C88.4477 16.2973 87.0266 17.3569 87.0266 18.899C87.0266 20.1281 87.9342 20.8514 90.1546 21.405L92.0525 21.8754C95.587 22.7189 97.0555 24.1518 97.0555 26.6947C97.0555 29.9472 94.4883 31.9843 90.4052 31.9843C86.5849 31.9843 84.0056 29.9951 83.839 26.8505L86.478 26.8507Z"/>
<path d="M102.619 16.0198V19.0194H105.008V21.0797H102.619V28.0674C102.619 29.153 103.097 29.6588 104.147 29.6588C104.431 29.6539 104.714 29.6338 104.995 29.5986V31.6467C104.523 31.7357 104.044 31.776 103.563 31.767C101.021 31.767 100.029 30.8031 100.029 28.3449V21.0797H98.2029V19.0194H100.029V16.0198H102.619Z"/>
<path d="M106.391 25.3577C106.391 21.3696 108.718 18.8635 112.347 18.8635C115.989 18.8635 118.305 21.3695 118.305 25.3577C118.305 29.3567 116.001 31.8518 112.347 31.8518C108.695 31.8518 106.391 29.3567 106.391 25.3577ZM115.679 25.3577C115.679 22.6219 114.436 21.0073 112.347 21.0073C110.258 21.0073 109.018 22.6342 109.018 25.3577C109.018 28.1043 110.258 29.7067 112.347 29.7067C114.436 29.7067 115.679 28.1043 115.679 25.3577H115.679Z"/>
<path d="M120.431 19.0194H122.89V21.1768H122.949C123.116 20.503 123.507 19.9075 124.057 19.4905C124.607 19.0734 125.283 18.8602 125.97 18.8867C126.267 18.8857 126.564 18.9182 126.854 18.9838V21.4174C126.479 21.3017 126.087 21.2486 125.695 21.2602C125.321 21.2448 124.947 21.3115 124.601 21.4555C124.254 21.5996 123.943 21.8176 123.687 22.0946C123.432 22.3717 123.239 22.7012 123.122 23.0605C123.005 23.4199 122.966 23.8005 123.009 24.1764V31.6945H120.431L120.431 19.0194Z" />
<path d="M138.74 27.9717C138.393 30.2727 136.173 31.8518 133.332 31.8518C129.678 31.8518 127.41 29.3813 127.41 25.4178C127.41 21.442 129.69 18.8635 133.223 18.8635C136.698 18.8635 138.883 21.2725 138.883 25.1157V26.0071H130.013V26.1643C129.972 26.6308 130.03 27.1007 130.182 27.5429C130.335 27.9851 130.58 28.3894 130.899 28.7289C131.219 29.0685 131.606 29.3356 132.036 29.5124C132.466 29.6892 132.928 29.7718 133.391 29.7545C134.001 29.8121 134.612 29.6697 135.135 29.3485C135.657 29.0273 136.063 28.5444 136.292 27.9717L138.74 27.9717ZM130.025 24.1887H136.304C136.327 23.7693 136.264 23.3495 136.119 22.9559C135.974 22.5622 135.749 22.203 135.46 21.9009C135.171 21.5989 134.823 21.3604 134.438 21.2005C134.053 21.0406 133.64 20.9627 133.223 20.9717C132.804 20.9692 132.387 21.0506 131.999 21.2112C131.61 21.3719 131.257 21.6086 130.96 21.9077C130.663 22.2067 130.427 22.5623 130.266 22.9538C130.106 23.3453 130.024 23.765 130.025 24.1887V24.1887Z" />
<path d="M37.964 4.75484H39.0708C39.2613 4.77879 39.4547 4.76264 39.6387 4.70742C39.8228 4.6522 39.9935 4.5591 40.1401 4.434C40.2867 4.30889 40.4061 4.15449 40.4906 3.98052C40.5752 3.80655 40.6231 3.61679 40.6314 3.42321C40.6314 2.6528 40.057 2.15514 39.083 2.15514C38.8878 2.12762 38.6891 2.13984 38.4986 2.19109C38.3082 2.24234 38.1299 2.33158 37.9742 2.45355C37.8185 2.57551 37.6886 2.72772 37.5921 2.90119C37.4957 3.07466 37.4346 3.26587 37.4126 3.46354H36.1974C36.2183 3.10472 36.3122 2.75409 36.4732 2.43347C36.6342 2.11286 36.8589 1.82912 37.1333 1.59994C37.4076 1.37075 37.7258 1.20102 38.068 1.10131C38.4102 1.0016 38.769 0.974051 39.1222 1.02037C40.7519 1.02037 41.8994 1.94117 41.8994 3.26666C41.9033 3.71071 41.7561 4.14265 41.4824 4.49037C41.2087 4.83809 40.8251 5.08056 40.3957 5.17731V5.27574C40.9048 5.29853 41.3843 5.52382 41.7292 5.90234C42.0742 6.28087 42.2567 6.78185 42.2367 7.29576C42.1991 7.66521 42.0887 8.02335 41.9121 8.34919C41.7355 8.67503 41.4962 8.96201 41.2083 9.19332C40.9204 9.42462 40.5896 9.59559 40.2353 9.69621C39.8811 9.79683 39.5105 9.82506 39.1453 9.77926C38.7793 9.82962 38.4071 9.80509 38.0507 9.70715C37.6943 9.6092 37.3611 9.43985 37.071 9.20918C36.7809 8.9785 36.5397 8.69124 36.362 8.3645C36.1842 8.03777 36.0734 7.67825 36.0363 7.30739H37.2704C37.3449 8.10651 38.0724 8.62199 39.1453 8.62199C40.2182 8.62199 40.9186 8.04299 40.9186 7.22678C40.9186 6.39895 40.2589 5.88898 39.106 5.88898H37.964V4.75484Z" />
<path d="M43.6389 7.79408C43.6389 6.65931 44.4774 6.00512 45.9622 5.91215L47.6542 5.81371V5.26958C47.6542 4.60375 47.2193 4.22778 46.3754 4.22778C45.6872 4.22778 45.2117 4.48276 45.0735 4.92846H43.88C44.006 3.84565 45.0166 3.15112 46.4336 3.15112C47.9997 3.15112 48.8829 3.93792 48.8829 5.26958V9.5769H47.6948V8.69096H47.5973C47.3993 9.00875 47.1213 9.26782 46.7917 9.44172C46.4621 9.61561 46.0926 9.6981 45.721 9.68076C45.4588 9.70829 45.1938 9.68006 44.943 9.59788C44.6923 9.5157 44.4614 9.3814 44.2652 9.20365C44.069 9.02589 43.9119 8.80862 43.804 8.56584C43.6962 8.32306 43.6399 8.06015 43.6389 7.79408ZM47.6542 7.2554V6.72836L46.1287 6.82679C45.2685 6.88489 44.8783 7.18021 44.8783 7.73597C44.8783 8.30335 45.366 8.63352 46.0367 8.63352C46.2332 8.6536 46.4317 8.63359 46.6203 8.57466C46.809 8.51574 46.984 8.41912 47.1349 8.29054C47.2858 8.16196 47.4096 8.00406 47.4988 7.82623C47.588 7.6484 47.6409 7.45427 47.6542 7.2554Z"/>
<path d="M52.1545 4.31998V9.57681H50.9217V3.27271H55.0347V4.3199L52.1545 4.31998Z"/>
<path d="M62.5058 6.42201C62.5058 8.42493 61.502 9.68071 59.9251 9.68071C59.538 9.70739 59.1514 9.6219 58.8109 9.4343C58.4703 9.24671 58.1899 8.96481 58.0028 8.62182H57.9052V11.6727H56.6725V3.2727H57.8592V4.31453H57.9513C58.1418 3.95956 58.4258 3.66463 58.772 3.46232C59.1182 3.26002 59.513 3.15821 59.9129 3.16814C61.502 3.1681 62.5058 4.41839 62.5058 6.42201ZM61.2378 6.42201C61.2378 5.09037 60.6133 4.28578 59.5688 4.28578C58.5312 4.28578 57.8822 5.10745 57.8822 6.42748C57.8822 7.74136 58.5311 8.56372 59.5634 8.56372C60.6133 8.5637 61.2378 7.75911 61.2378 6.42201Z" />
<path d="M64.1477 11.8347V10.7635C64.2811 10.7806 64.4155 10.7884 64.55 10.7868C64.8126 10.8064 65.0732 10.7275 65.2817 10.5651C65.4902 10.4027 65.632 10.1684 65.6798 9.90698L65.7719 9.60005L63.5109 3.27271H64.8534L66.4195 8.28003H66.5171L68.0777 3.27271H69.385L67.0563 9.83726C66.5225 11.3712 65.9318 11.8634 64.6584 11.8634C64.5555 11.8634 64.2628 11.8518 64.1477 11.8347Z"/>
<path d="M70.3455 7.78784H71.5728C71.6934 8.34364 72.2096 8.63344 72.9316 8.63344C73.7525 8.63344 74.2565 8.2684 74.2565 7.70104C74.2565 7.09333 73.804 6.80349 72.9316 6.80349H71.9968V5.83688H72.9153C73.6604 5.83688 74.0397 5.54773 74.0397 5.02068C74.0397 4.55789 73.6726 4.20448 72.9153 4.20448C72.2258 4.20448 71.7218 4.4998 71.6419 4.99746H70.4538C70.5427 4.42561 70.8503 3.91179 71.3106 3.5665C71.771 3.22121 72.3472 3.07204 72.9153 3.15107C74.4001 3.15107 75.2495 3.82851 75.2495 4.89355C75.2564 5.19013 75.1623 5.48013 74.9827 5.71505C74.8032 5.94997 74.5492 6.11558 74.2633 6.18418V6.28262C74.6037 6.32694 74.9163 6.49586 75.1415 6.75733C75.3668 7.0188 75.4891 7.35462 75.4852 7.70107C75.4852 8.89947 74.4746 9.69237 72.9316 9.69237C71.5674 9.69233 70.4593 9.06138 70.3455 7.78784Z" />
<path d="M77.2606 9.57681V3.27271H78.4825V7.60876H78.58L81.4588 3.27272H82.6807V9.57682H81.4588V5.21756H81.3667L78.4825 9.57684L77.2606 9.57681Z"/>
<path d="M89.4123 4.32015H87.4452V9.57698H86.2111V4.32015H84.244V3.27295H89.4123V4.32015Z"/>
<path d="M96.053 7.87487C95.885 8.451 95.5218 8.94926 95.0269 9.28261C94.5319 9.61597 93.9366 9.76324 93.345 9.69869C92.9334 9.70966 92.5244 9.63011 92.1464 9.46557C91.7684 9.30103 91.4304 9.05543 91.1559 8.74584C90.8813 8.43625 90.6768 8.07007 90.5566 7.67271C90.4363 7.27536 90.4032 6.85636 90.4594 6.44478C90.4046 6.03194 90.4384 5.61204 90.5583 5.2135C90.6783 4.81496 90.8817 4.44708 91.1548 4.13478C91.4279 3.82248 91.7643 3.57304 92.1413 3.40335C92.5182 3.23366 92.9268 3.14768 93.3395 3.15123C95.0776 3.15123 96.1275 4.34963 96.1275 6.32923V6.76337H91.7166V6.83309C91.6971 7.06448 91.7257 7.29744 91.8007 7.51699C91.8757 7.73654 91.9954 7.93783 92.1521 8.10792C92.3088 8.27801 92.499 8.41313 92.7105 8.50461C92.922 8.59609 93.1501 8.64189 93.3802 8.63909C93.6749 8.67465 93.9734 8.62097 94.2378 8.48489C94.5021 8.3488 94.7205 8.13645 94.865 7.87483L96.053 7.87487ZM91.7166 5.84323H94.8703C94.8859 5.63176 94.8575 5.41934 94.7869 5.21961C94.7163 5.01988 94.6051 4.83726 94.4604 4.68347C94.3158 4.52968 94.1408 4.40812 93.9469 4.32661C93.7529 4.24509 93.5442 4.20542 93.3341 4.21013C93.1208 4.2072 92.9091 4.24745 92.7115 4.32849C92.5139 4.40954 92.3344 4.52973 92.1837 4.68198C92.0329 4.83422 91.9138 5.01542 91.8336 5.21488C91.7534 5.41433 91.7136 5.62799 91.7166 5.84323H91.7166Z"/>
<path d="M101.279 3.27271H104.096C105.318 3.27271 106.034 3.89751 106.034 4.8757C106.036 5.1861 105.933 5.48773 105.74 5.73013C105.548 5.97254 105.28 6.141 104.979 6.20734V6.30578C105.344 6.32904 105.686 6.49282 105.935 6.76328C106.183 7.03374 106.319 7.39023 106.315 7.7591C106.315 8.859 105.495 9.57678 104.124 9.57678H101.279V3.27271ZM102.501 4.22769V5.86009H103.723C104.468 5.86009 104.825 5.57093 104.825 5.03773C104.825 4.54623 104.515 4.22767 103.86 4.22767L102.501 4.22769ZM102.501 6.77476V8.62184H103.963C104.692 8.62184 105.082 8.29714 105.082 7.70105C105.082 7.07009 104.641 6.77478 103.809 6.77478L102.501 6.77476Z"/>
</symbol>
<symbol id="behavior">
<path d="M24.7456 5.56427C20.6675 5.56427 18.7314 7.72545 17.8254 9.53848C17.22 10.7501 16.9905 11.9522 16.9036 12.7C16.7198 11.9751 16.3903 11.1871 15.8019 10.5651C15.5069 10.2533 15.1704 10.0061 14.7944 9.82408C15.6327 9.26154 16.4582 8.22141 16.4582 6.30661C16.4582 4.5325 15.8509 3.06835 14.702 2.0725C13.6501 1.16088 12.1998 0.678955 10.5076 0.678955H0.516091C0.231002 0.678955 0 0.910061 0 1.19505V20.398C0 20.6829 0.231002 20.914 0.516091 20.914H10.5021C10.5145 20.9143 10.5391 20.9148 10.5747 20.9148C10.5748 20.9148 10.5747 20.9148 10.5748 20.9148C11.016 20.9148 12.572 20.855 14.0745 20.0862C15.3152 19.4517 16.767 18.1842 17.0687 15.6959C17.3104 16.7603 17.8036 18.0254 18.8012 19.0943C20.1744 20.5657 22.1699 21.313 24.7324 21.3156C24.7694 21.3173 24.8648 21.321 25.0083 21.321C25.6553 21.321 27.3241 21.2433 28.8419 20.5233C30.7976 19.5954 31.8314 17.9246 31.8314 15.6914C31.8314 15.4063 31.6004 15.1753 31.3154 15.1753H27.9366C27.795 15.1753 27.6594 15.23 27.5619 15.3328C27.4645 15.4356 27.4134 15.5705 27.4209 15.712C27.4214 15.731 27.4282 16.1853 27.0391 16.5843C26.6196 17.0145 25.8653 17.2419 24.858 17.2419C24.8478 17.2419 24.8356 17.2423 24.8254 17.2429C24.8187 17.2433 24.7885 17.2447 24.7395 17.2447C24.5288 17.2447 23.7914 17.215 23.1477 16.8323C22.5021 16.4483 22.1247 15.8101 22.0222 14.9312H31.4295C31.6887 14.9312 31.9077 14.739 31.9413 14.482C31.9633 14.3133 32.4541 10.3225 30.1626 7.71234C28.9111 6.287 27.0886 5.56427 24.7456 5.56427ZM22.1105 11.3375C22.3843 10.5923 23.0917 9.40945 24.8209 9.40945C25.5501 9.40945 26.1242 9.61476 26.527 10.0197C26.9255 10.4204 27.0989 10.9512 27.1742 11.3375H22.1105ZM5.43578 12.3696H10.5105C10.6648 12.3708 12.0179 12.4401 12.0179 14.4904C12.0179 15.8313 11.4639 16.4419 10.2217 16.4698H5.43578V12.3696ZM10.161 8.37624H5.43578V5.12281L10.4974 5.1226C10.6397 5.12869 11.3499 5.22881 11.3499 6.60522C11.3499 8.37624 10.7183 8.37624 10.161 8.37624Z"/>
</symbol>
<symbol id="inst">
<path d="M4.1088 0.00146484H27.8931C30.1527 0.00146484 32 1.84936 32 4.10898V27.8933C32 30.1523 30.1527 31.9989 27.8931 31.9989H4.1088C1.84917 31.9989 0 30.1522 0 27.8933V4.10898C0 1.84936 1.84917 0.00146484 4.1088 0.00146484ZM23.3116 3.55528C22.5182 3.55528 21.871 4.20498 21.871 4.99794V8.44477C21.871 9.23805 22.5182 9.88626 23.3116 9.88626H26.9279C27.72 9.88626 28.3685 9.23805 28.3685 8.44477V4.99794C28.3685 4.20498 27.72 3.55528 26.9279 3.55528H23.3116ZM28.3823 13.5328H25.5667C25.8337 14.4048 25.9785 15.3243 25.9785 16.2804C25.9785 21.6011 21.5234 25.9167 16.0301 25.9167C10.5381 25.9167 6.08299 21.6011 6.08299 16.2804C6.08299 15.3243 6.22912 14.4048 6.49483 13.5328H3.55733V27.0509C3.55733 27.7509 4.12896 28.3204 4.82837 28.3204H27.1118C27.8118 28.3204 28.3823 27.7509 28.3823 27.0509V13.5328ZM16.0302 9.7045C12.4825 9.7045 9.60459 12.4915 9.60459 15.9326C9.60459 19.3701 12.4825 22.1592 16.0302 22.1592C19.5798 22.1592 22.4578 19.3701 22.4578 15.9326C22.4578 12.4914 19.5798 9.7045 16.0302 9.7045Z"/>
</symbol>
<symbol id="telegram">
<path d="M0.565214 13.4287L7.93866 16.1807L10.7926 25.3591C10.9752 25.9469 11.6941 26.1642 12.1712 25.7741L16.2813 22.4235C16.7121 22.0725 17.3257 22.055 17.776 22.3818L25.1891 27.7639C25.6995 28.1349 26.4226 27.8552 26.5506 27.2384L31.9811 1.11675C32.1208 0.443039 31.4589 -0.118988 30.8174 0.129119L0.556574 11.8028C-0.190199 12.0908 -0.183692 13.1481 0.565214 13.4287ZM10.3327 14.7158L24.7431 5.84037C25.0021 5.68133 25.2686 6.03152 25.0462 6.23781L13.1534 17.2927C12.7353 17.6819 12.4657 18.2026 12.3893 18.7678L11.9842 21.7701C11.9305 22.1709 11.3675 22.2107 11.2568 21.8228L9.69876 16.3481C9.52031 15.7237 9.78036 15.0567 10.3327 14.7158Z"/>
</symbol>
<symbol id="vk">
<path fill-rule="evenodd" clip-rule="evenodd" d="M27.5406 12.4598C28.602 13.4961 29.7224 14.4712 30.6744 15.612C31.095 16.119 31.4931 16.6422 31.7977 17.2305C32.2293 18.0669 31.8384 18.9873 31.0885 19.0372L26.4266 19.0351C25.2242 19.1349 24.2651 18.6509 23.4585 17.8288C22.8131 17.1713 22.2154 16.4717 21.5948 15.792C21.3403 15.5143 21.074 15.2529 20.7559 15.0463C20.1195 14.6332 19.5671 14.7597 19.2034 15.4234C18.833 16.0985 18.749 16.846 18.7126 17.5984C18.6627 18.6962 18.3308 18.9848 17.2281 19.035C14.8716 19.1462 12.6351 18.7896 10.5574 17.6008C8.72568 16.5528 7.30526 15.0733 6.06893 13.3983C3.66178 10.1368 1.81839 6.55297 0.161611 2.8687C-0.211316 2.03863 0.0614137 1.59306 0.977277 1.57728C2.49811 1.54774 4.01873 1.54984 5.54135 1.57518C6.15946 1.58422 6.56866 1.93875 6.80732 2.52269C7.63014 4.54587 8.63694 6.47075 9.90071 8.25496C10.2373 8.72997 10.5804 9.20499 11.0691 9.53933C11.6097 9.90952 12.0214 9.78683 12.2757 9.18459C12.4371 8.80273 12.5077 8.39143 12.5441 7.98244C12.6646 6.57537 12.6805 5.17071 12.4691 3.76858C12.3394 2.89352 11.8465 2.32703 10.9733 2.16143C10.5278 2.07701 10.5941 1.91121 10.8098 1.65687C11.1846 1.21824 11.537 0.94519 12.2395 0.94519H17.5081C18.3376 1.10889 18.5218 1.4815 18.6353 2.31609L18.6398 8.16843C18.6308 8.49152 18.8012 9.45028 19.3832 9.66413C19.8489 9.81637 20.1559 9.44376 20.4354 9.14843C21.6968 7.80959 22.5971 6.22736 23.4015 4.58898C23.7584 3.86857 24.0653 3.1204 24.3627 2.37287C24.5831 1.81816 24.9289 1.54522 25.5538 1.55731L30.6245 1.56183C30.7748 1.56183 30.927 1.56404 31.0726 1.58895C31.927 1.73457 32.1612 2.10214 31.8973 2.93652C31.4815 4.2456 30.6724 5.33652 29.8814 6.43248C29.0357 7.60257 28.1313 8.7326 27.2927 9.90963C26.5223 10.9845 26.5835 11.5262 27.5406 12.4598Z"/>
</symbol>
</svg>
